
<svg id="Layer_1" data-name="Layer 1" xmlns="http://www.w3.org/2000/svg" viewBox="0 0 427.32 427.32">
  <defs>
    <style>.cls-1,.cls-2{fill:none;stroke-linecap:square;stroke-linejoin:round;}.cls-1{stroke:#038181;stroke-width:2px;}.cls-2{stroke:#f4c516;stroke-width:4px;}</style>
  </defs>
  <title>logo-connected</title>
  <rect x="0" y="0" width="427.32" height="427.32" fill="#111" />
  <path class="cls-1" d="M263.76,443.1a212.66,212.66,0,1,0-150.37-62.29A212.67,212.67,0,0,0,263.76,443.1h0" transform="translate(-50.1 -16.78)"/>
  <path class="cls-1" d="M263.76,443.1a212.66,212.66,0,1,0-150.37-62.29A212.67,212.67,0,0,0,263.76,443.1Z" transform="translate(-50.1 -16.78)"/>
  <path class="cls-1" d="M460.29,230.44l0-3.43-0.09-3.43-0.36-6.85-0.6-6.83-0.84-6.81-1.07-6.78L456,189.58l-1.54-6.68-1.78-6.63-2-6.56-2.23-6.49-2.46-6.4-2.68-6.31-2.9-6.22-3.11-6.11-3.33-6-3.53-5.88-3.74-5.75-3.93-5.62-4.13-5.48-4.32-5.33-4.5-5.18-4.68-5-4.85-4.85-5-4.68-5.18-4.5-5.33-4.32-5.48-4.13-5.62-3.93-5.75-3.74L362,60.23l-6-3.33-6.11-3.11-6.22-2.9-6.32-2.68L331,45.75l-6.49-2.23-6.56-2-6.63-1.78-6.68-1.54-6.73-1.31-6.78-1.07L284.3,35l-6.83-.6L270.62,34l-6.86-.12L256.9,34l-6.85.36-6.83.6-6.81.84-6.78,1.07-6.73,1.31-6.68,1.54-6.63,1.78-6.56,2-6.49,2.23-6.4,2.46-6.31,2.68-6.22,2.9-6.11,3.11-6,3.33-5.88,3.53-5.75,3.74-5.62,3.93-5.48,4.13-5.33,4.32-5.18,4.5-5,4.68-4.85,4.85-4.68,5-4.5,5.18-4.32,5.33-4.13,5.48-3.93,5.62-3.74,5.75-3.53,5.88-3.33,6-3.11,6.11-2.9,6.22-2.68,6.31-2.46,6.4-2.23,6.49-2,6.56-1.78,6.63-1.54,6.68-1.31,6.73-1.07,6.78-0.84,6.81-0.6,6.83-0.36,6.85-0.12,6.86,0.12,6.86,0.36,6.85L68.3,251l0.84,6.81,1.07,6.78,1.31,6.73L73.06,278l1.78,6.63,2,6.56,2.23,6.49,2.46,6.4,2.68,6.32,2.9,6.22,3.11,6.11,3.33,6,3.53,5.88,3.74,5.75,3.93,5.62,4.13,5.48,4.32,5.33,4.5,5.18,4.68,5,4.85,4.85,5,4.68,5.18,4.5,5.33,4.32,5.48,4.13,5.62,3.93,5.75,3.74,5.88,3.53,6,3.33,6.11,3.11,6.22,2.9,6.31,2.68,6.4,2.46,6.49,2.23,6.56,2,6.63,1.78,6.68,1.54,6.73,1.31,6.78,1.07,6.81,0.84,6.83,0.6,6.85,0.36,6.86,0.12,6.86-.12,6.85-.36,6.83-.6,6.81-.84,6.78-1.07,6.73-1.31,6.68-1.54,6.63-1.78,6.56-2,6.49-2.23,6.4-2.46L343.7,410l6.22-2.9L356,404l6-3.33,5.88-3.53,5.75-3.74,5.62-3.93,5.48-4.13,5.33-4.32,5.18-4.5,5-4.68,4.85-4.85,4.68-5,4.5-5.18,4.32-5.33,4.13-5.48,3.93-5.62,3.74-5.75,3.53-5.88,3.33-6,3.11-6.11,2.9-6.22,2.68-6.32,2.46-6.4,2.23-6.49,2-6.56,1.78-6.63L456,271.3l1.31-6.73,1.07-6.78,0.84-6.81,0.6-6.83,0.36-6.85,0.12-6.86h0" transform="translate(-50.1 -16.78)"/>
  <path class="cls-1" d="M263.76,443.1a212.66,212.66,0,1,0-150.37-62.29A212.67,212.67,0,0,0,263.76,443.1Z" transform="translate(-50.1 -16.78)"/>
  <path class="cls-1" d="M263.76,443.1a212.66,212.66,0,1,0-150.37-62.29A212.67,212.67,0,0,0,263.76,443.1Z" transform="translate(-50.1 -16.78)"/>
  <path class="cls-1" d="M263.76,443.1a212.66,212.66,0,1,0-150.37-62.29A212.67,212.67,0,0,0,263.76,443.1Z" transform="translate(-50.1 -16.78)"/>
  <path class="cls-1" d="M263.76,443.1a212.66,212.66,0,1,0-150.37-62.29A212.67,212.67,0,0,0,263.76,443.1Z" transform="translate(-50.1 -16.78)"/>
  <path class="cls-1" d="M263.76,443.1a212.66,212.66,0,1,0-150.37-62.29A212.67,212.67,0,0,0,263.76,443.1Z" transform="translate(-50.1 -16.78)"/>
  <path class="cls-1" d="M263.76,443.1a212.66,212.66,0,1,0-150.37-62.29A212.67,212.67,0,0,0,263.76,443.1Z" transform="translate(-50.1 -16.78)"/>
  <path class="cls-1" d="M263.76,443.1a212.66,212.66,0,1,0-150.37-62.29A212.67,212.67,0,0,0,263.76,443.1Z" transform="translate(-50.1 -16.78)"/>
  <path class="cls-1" d="M263.76,443.1a212.66,212.66,0,1,0-150.37-62.29A212.67,212.67,0,0,0,263.76,443.1Z" transform="translate(-50.1 -16.78)"/>
  <path class="cls-1" d="M263.76,443.1a212.66,212.66,0,1,0-150.37-62.29A212.67,212.67,0,0,0,263.76,443.1Z" transform="translate(-50.1 -16.78)"/>
  <path class="cls-1" d="M263.76,443.1a212.66,212.66,0,1,0-150.37-62.29A212.67,212.67,0,0,0,263.76,443.1Z" transform="translate(-50.1 -16.78)"/>
  <path class="cls-1" d="M263.76,443.1a212.66,212.66,0,1,0-150.37-62.29A212.67,212.67,0,0,0,263.76,443.1Z" transform="translate(-50.1 -16.78)"/>
  <path class="cls-1" d="M263.76,443.1a212.66,212.66,0,1,0-150.37-62.29A212.67,212.67,0,0,0,263.76,443.1Z" transform="translate(-50.1 -16.78)"/>
  <path class="cls-1" d="M263.76,443.1a212.66,212.66,0,1,0-150.37-62.29A212.67,212.67,0,0,0,263.76,443.1Z" transform="translate(-50.1 -16.78)"/>
  <path class="cls-1" d="M263.76,443.1a212.66,212.66,0,1,0-150.37-62.29A212.67,212.67,0,0,0,263.76,443.1Z" transform="translate(-50.1 -16.78)"/>
  <path class="cls-1" d="M263.76,443.1a212.66,212.66,0,1,0-150.37-62.29A212.67,212.67,0,0,0,263.76,443.1Z" transform="translate(-50.1 -16.78)"/>
  <path class="cls-1" d="M263.76,443.1a212.66,212.66,0,1,0-150.37-62.29A212.67,212.67,0,0,0,263.76,443.1Z" transform="translate(-50.1 -16.78)"/>
  <path class="cls-1" d="M263.76,443.1a212.66,212.66,0,1,0-150.37-62.29A212.67,212.67,0,0,0,263.76,443.1Z" transform="translate(-50.1 -16.78)"/>
  <path class="cls-1" d="M263.76,443.1a212.66,212.66,0,1,0-150.37-62.29A212.67,212.67,0,0,0,263.76,443.1Z" transform="translate(-50.1 -16.78)"/>
  <path class="cls-1" d="M263.76,443.1a212.66,212.66,0,1,0-150.37-62.29A212.67,212.67,0,0,0,263.76,443.1Z" transform="translate(-50.1 -16.78)"/>
  <path class="cls-1" d="M263.76,443.1a212.66,212.66,0,1,0-150.37-62.29A212.67,212.67,0,0,0,263.76,443.1Z" transform="translate(-50.1 -16.78)"/>
  <path class="cls-1" d="M263.76,443.1a212.66,212.66,0,1,0-150.37-62.29A212.67,212.67,0,0,0,263.76,443.1Z" transform="translate(-50.1 -16.78)"/>
  <path class="cls-1" d="M263.76,443.1a212.66,212.66,0,1,0-150.37-62.29A212.67,212.67,0,0,0,263.76,443.1Z" transform="translate(-50.1 -16.78)"/>
  <path class="cls-1" d="M263.76,443.1a212.66,212.66,0,1,0-150.37-62.29A212.67,212.67,0,0,0,263.76,443.1Z" transform="translate(-50.1 -16.78)"/>
  <path class="cls-1" d="M263.76,443.1a212.66,212.66,0,1,0-150.37-62.29A212.67,212.67,0,0,0,263.76,443.1Z" transform="translate(-50.1 -16.78)"/>
  <path class="cls-1" d="M263.76,443.1a212.66,212.66,0,1,0-150.37-62.29A212.67,212.67,0,0,0,263.76,443.1Z" transform="translate(-50.1 -16.78)"/>
  <path class="cls-1" d="M263.76,443.1a212.66,212.66,0,1,0-150.37-62.29A212.67,212.67,0,0,0,263.76,443.1Z" transform="translate(-50.1 -16.78)"/>
  <path class="cls-1" d="M263.76,443.1a212.66,212.66,0,1,0-150.37-62.29A212.67,212.67,0,0,0,263.76,443.1Z" transform="translate(-50.1 -16.78)"/>
  <path class="cls-1" d="M263.76,443.1a212.66,212.66,0,1,0-150.37-62.29A212.67,212.67,0,0,0,263.76,443.1Z" transform="translate(-50.1 -16.78)"/>
  <path class="cls-1" d="M263.76,443.1a212.66,212.66,0,1,0-150.37-62.29A212.67,212.67,0,0,0,263.76,443.1Z" transform="translate(-50.1 -16.78)"/>
  <path class="cls-1" d="M263.76,443.1a212.66,212.66,0,1,0-150.37-62.29A212.67,212.67,0,0,0,263.76,443.1Z" transform="translate(-50.1 -16.78)"/>
  <path class="cls-1" d="M263.76,443.1a212.66,212.66,0,1,0-150.37-62.29A212.67,212.67,0,0,0,263.76,443.1Z" transform="translate(-50.1 -16.78)"/>
  <path class="cls-1" d="M306.32,164.9l-0.59-1.62-0.63-1.64L304.43,160l-0.71-1.66L303,156.67,302.19,155l-0.82-1.68-0.86-1.69-0.91-1.7-0.95-1.7-1-1.71-1-1.72-1.08-1.72" transform="translate(-50.1 -16.78)"/>
  <path class="cls-1" d="M263.76,443.1a212.66,212.66,0,1,0-150.37-62.29A212.67,212.67,0,0,0,263.76,443.1Z" transform="translate(-50.1 -16.78)"/>
  <path class="cls-1" d="M290.79,136.16l-1.31-1.73-1.36-1.73-1.4-1.73-1.45-1.73-1.5-1.73-1.56-1.72-1.6-1.72-1.66-1.71-1.71-1.71-1.76-1.7-1.82-1.69-1.87-1.68-1.92-1.67-2-1.66" transform="translate(-50.1 -16.78)"/>
  <path class="cls-1" d="M263.76,443.1a212.66,212.66,0,1,0-150.37-62.29A212.67,212.67,0,0,0,263.76,443.1Z" transform="translate(-50.1 -16.78)"/>
  <path class="cls-1" d="M259.4,105.76l-2.26-1.58-2.32-1.56-2.38-1.54L250,99.55l-2.5-1.5-2.56-1.47-2.62-1.45-2.68-1.42-2.74-1.39L234.11,91l-2.86-1.33-2.92-1.3-3-1.26-3-1.23" transform="translate(-50.1 -16.78)"/>
  <path class="cls-1" d="M263.76,443.1a212.66,212.66,0,1,0-150.37-62.29A212.67,212.67,0,0,0,263.76,443.1Z" transform="translate(-50.1 -16.78)"/>
  <path class="cls-1" d="M209.48,81.32l-3.36-1-3.42-1-3.49-.93-3.55-.88-3.61-.83-3.67-.78-3.74-.72-3.8-.67L177,73.9l-3.92-.55-4-.49-4-.42-4.11-.36-4.17-.29-4.23-.22-4.29-.15L147,75.56l-1.1,4.09-1,4.05-0.93,4-0.85,4-0.77,3.94-0.69,3.9-0.61,3.86-0.54,3.82L140.07,111l-0.4,3.73-0.33,3.69-0.26,3.65-0.19,3.6-0.13,3.56-0.06,3.51" transform="translate(-50.1 -16.78)"/>
  <path class="cls-1" d="M263.76,443.1a212.66,212.66,0,1,0-150.37-62.29A212.67,212.67,0,0,0,263.76,443.1Z" transform="translate(-50.1 -16.78)"/>
  <path class="cls-1" d="M139,146.32l0.23,3.28,0.28,3.23,0.33,3.18,0.38,3.13,0.43,3.08,0.48,3,0.52,3,0.57,2.94,0.61,2.89,0.65,2.84,0.69,2.79,0.73,2.74,0.77,2.69,0.8,2.64,0.84,2.59,0.87,2.54,0.9,2.49,0.94,2.44,1,2.39,1,2.35,1,2.3,1,2.25,1.07,2.2,1.09,2.15,1.12,2.11,1.14,2.06,1.16,2,1.18,2,1.2,1.92,1.21,1.87,1.23,1.82,1.24,1.78" transform="translate(-50.1 -16.78)"/>
  <path class="cls-1" d="M263.76,443.1a212.66,212.66,0,1,0-150.37-62.29A212.67,212.67,0,0,0,263.76,443.1Z" transform="translate(-50.1 -16.78)"/>
  <path class="cls-1" d="M170.84,233.68l1.3,1.56,1.31,1.51,1.32,1.47,1.33,1.43,1.34,1.39,1.34,1.34,1.35,1.3,1.35,1.26,1.35,1.22,1.36,1.18,1.36,1.14,1.36,1.1,1.36,1.07" transform="translate(-50.1 -16.78)"/>
  <path class="cls-1" d="M263.76,443.1a212.66,212.66,0,1,0-150.37-62.29A212.67,212.67,0,0,0,263.76,443.1Z" transform="translate(-50.1 -16.78)"/>
  <path class="cls-1" d="M263.76,443.1a212.66,212.66,0,1,0-150.37-62.29A212.67,212.67,0,0,0,263.76,443.1Z" transform="translate(-50.1 -16.78)"/>
  <path class="cls-1" d="M263.76,443.1a212.66,212.66,0,1,0-150.37-62.29A212.67,212.67,0,0,0,263.76,443.1Z" transform="translate(-50.1 -16.78)"/>
  <path class="cls-1" d="M263.76,443.1a212.66,212.66,0,1,0-150.37-62.29A212.67,212.67,0,0,0,263.76,443.1Z" transform="translate(-50.1 -16.78)"/>
  <path class="cls-1" d="M214.58,169.71l-1.73.06-1.75.09-1.77.13-1.79.16-1.81.19-1.83.23-1.86.26-1.87.3-1.9.34-1.91.37-1.93.41-2,.45-2,.49" transform="translate(-50.1 -16.78)"/>
  <path class="cls-1" d="M263.76,443.1a212.66,212.66,0,1,0-150.37-62.29A212.67,212.67,0,0,0,263.76,443.1Z" transform="translate(-50.1 -16.78)"/>
  <path class="cls-1" d="M182.45,175.59l-2.05.71-2.07.75-2.08.8-2.09.85-2.11.9-2.12.94-2.13,1-2.14,1-2.15,1.1-2.16,1.15L159.18,186,157,187.31l-2.18,1.31L152.63,190" transform="translate(-50.1 -16.78)"/>
  <path class="cls-1" d="M263.76,443.1a212.66,212.66,0,1,0-150.37-62.29A212.67,212.67,0,0,0,263.76,443.1Z" transform="translate(-50.1 -16.78)"/>
  <path class="cls-1" d="M143.83,196.05l-2.2,1.67-2.2,1.72-2.2,1.79-2.2,1.85-2.2,1.91-2.19,2-2.19,2-2.18,2.11-2.17,2.17-2.16,2.24-2.15,2.31-2.14,2.38-2.12,2.45-2.11,2.52" transform="translate(-50.1 -16.78)"/>
  <path class="cls-1" d="M263.76,443.1a212.66,212.66,0,1,0-150.37-62.29A212.67,212.67,0,0,0,263.76,443.1Z" transform="translate(-50.1 -16.78)"/>
  <path class="cls-1" d="M105.16,236l-2,2.88-2,3-2,3-1.93,3.1-1.91,3.18-1.87,3.25-1.84,3.33-1.81,3.41-1.77,3.49-1.73,3.56-1.69,3.64L83,275.51l-1.61,3.8-1.56,3.88-1.51,4-1.46,4,3.56,2.4,3.55,2.31,3.54,2.22L91,300.23l3.52,2L98,304.22l3.5,1.86,3.48,1.78,3.46,1.69,3.45,1.61,3.43,1.53,3.41,1.45,3.39,1.37,3.37,1.3,3.34,1.22,3.32,1.15" transform="translate(-50.1 -16.78)"/>
  <path class="cls-1" d="M263.76,443.1a212.66,212.66,0,1,0-150.37-62.29A212.67,212.67,0,0,0,263.76,443.1Z" transform="translate(-50.1 -16.78)"/>
  <path class="cls-1" d="M145.22,323.05l3.19,0.8,3.16,0.73,3.13,0.67,3.1,0.61,3.07,0.54,3,0.48,3,0.42,3,0.37,2.94,0.31,2.9,0.26,2.87,0.2,2.83,0.15,2.8,0.1,2.76,0.05h2.72l2.69,0,2.65-.09,2.61-.13,2.58-.18,2.54-.22,2.5-.26,2.46-.3,2.42-.34,2.39-.38,2.35-.41,2.31-.45,2.27-.48,2.23-.51,2.19-.55,2.15-.57,2.11-.6,2.08-.63" transform="translate(-50.1 -16.78)"/>
  <path class="cls-1" d="M263.76,443.1a212.66,212.66,0,1,0-150.37-62.29A212.67,212.67,0,0,0,263.76,443.1Z" transform="translate(-50.1 -16.78)"/>
  <path class="cls-1" d="M238.13,319.81L240,319l1.84-.78,1.81-.8,1.77-.82,1.73-.84,1.69-.86,1.66-.88,1.62-.9,1.58-.91,1.54-.93,1.51-.94,1.47-1,1.43-1" transform="translate(-50.1 -16.78)"/>
  <path class="cls-1" d="M263.76,443.1a212.66,212.66,0,1,0-150.37-62.29A212.67,212.67,0,0,0,263.76,443.1Z" transform="translate(-50.1 -16.78)"/>
  <path class="cls-1" d="M263.76,443.1a212.66,212.66,0,1,0-150.37-62.29A212.67,212.67,0,0,0,263.76,443.1Z" transform="translate(-50.1 -16.78)"/>
  <path class="cls-1" d="M263.76,443.1a212.66,212.66,0,1,0-150.37-62.29A212.67,212.67,0,0,0,263.76,443.1Z" transform="translate(-50.1 -16.78)"/>
  <path class="cls-1" d="M263.76,443.1a212.66,212.66,0,1,0-150.37-62.29A212.67,212.67,0,0,0,263.76,443.1Z" transform="translate(-50.1 -16.78)"/>
  <path class="cls-1" d="M190.81,258.44l-0.48,1.66-0.45,1.69-0.43,1.72-0.4,1.75-0.38,1.79-0.35,1.81L188,270.72l-0.3,1.88-0.27,1.91-0.24,1.94-0.2,2-0.17,2-0.14,2" transform="translate(-50.1 -16.78)"/>
  <path class="cls-1" d="M263.76,443.1a212.66,212.66,0,1,0-150.37-62.29A212.67,212.67,0,0,0,263.76,443.1Z" transform="translate(-50.1 -16.78)"/>
  <path class="cls-1" d="M186.47,290.82l0,2.17,0.08,2.2,0.12,2.23,0.16,2.25,0.2,2.28,0.24,2.31,0.29,2.33,0.33,2.36,0.38,2.38,0.43,2.41,0.48,2.44,0.53,2.46,0.58,2.48,0.63,2.5" transform="translate(-50.1 -16.78)"/>
  <path class="cls-1" d="M263.76,443.1a212.66,212.66,0,1,0-150.37-62.29A212.67,212.67,0,0,0,263.76,443.1Z" transform="translate(-50.1 -16.78)"/>
  <path class="cls-1" d="M194,333.87l0.9,2.61,1,2.63,1,2.65,1.08,2.66,1.14,2.68,1.2,2.7,1.27,2.71,1.33,2.72,1.4,2.74,1.46,2.75,1.53,2.76,1.6,2.77,1.67,2.78,1.74,2.78" transform="translate(-50.1 -16.78)"/>
  <path class="cls-1" d="M263.76,443.1a212.66,212.66,0,1,0-150.37-62.29A212.67,212.67,0,0,0,263.76,443.1Z" transform="translate(-50.1 -16.78)"/>
  <path class="cls-1" d="M220,383l2.12,2.8,2.19,2.8,2.27,2.8,2.35,2.8,2.43,2.79,2.52,2.79,2.6,2.78,2.68,2.77,2.77,2.76,2.85,2.75,2.94,2.74,3,2.72,3.11,2.7,3.2,2.68,3.29,2.66,3.38,2.64,3.38-2.64,3.29-2.66,3.2-2.68,3.11-2.7,3-2.72,2.94-2.74,2.85-2.75,2.77-2.76,2.68-2.77,2.6-2.78,2.52-2.79,2.43-2.79,2.35-2.8,2.27-2.8,2.19-2.8,2.12-2.8" transform="translate(-50.1 -16.78)"/>
  <path class="cls-1" d="M263.76,443.1a212.66,212.66,0,1,0-150.37-62.29A212.67,212.67,0,0,0,263.76,443.1Z" transform="translate(-50.1 -16.78)"/>
  <path class="cls-1" d="M315.21,371.8L317,369l1.67-2.78,1.6-2.77,1.53-2.76,1.46-2.75,1.4-2.74L326,352.5l1.27-2.71,1.2-2.7,1.14-2.68,1.08-2.66,1-2.65,1-2.63,0.9-2.61,0.84-2.59,0.79-2.57,0.73-2.55,0.68-2.53,0.63-2.5,0.58-2.48,0.52-2.46,0.48-2.44,0.43-2.41,0.38-2.38,0.33-2.36,0.29-2.33,0.24-2.31,0.2-2.28,0.16-2.25,0.12-2.23L341,293l0-2.17" transform="translate(-50.1 -16.78)"/>
  <path class="cls-1" d="M263.76,443.1a212.66,212.66,0,1,0-150.37-62.29A212.67,212.67,0,0,0,263.76,443.1Z" transform="translate(-50.1 -16.78)"/>
  <path class="cls-1" d="M340.83,282.43l-0.14-2-0.17-2-0.2-2-0.24-1.94-0.27-1.91-0.3-1.88-0.32-1.85-0.35-1.81-0.38-1.79-0.4-1.75-0.43-1.72-0.45-1.69-0.48-1.66" transform="translate(-50.1 -16.78)"/>
  <path class="cls-1" d="M263.76,443.1a212.66,212.66,0,1,0-150.37-62.29A212.67,212.67,0,0,0,263.76,443.1Z" transform="translate(-50.1 -16.78)"/>
  <path class="cls-1" d="M263.76,443.1a212.66,212.66,0,1,0-150.37-62.29A212.67,212.67,0,0,0,263.76,443.1Z" transform="translate(-50.1 -16.78)"/>
  <path class="cls-1" d="M263.76,443.1a212.66,212.66,0,1,0-150.37-62.29A212.67,212.67,0,0,0,263.76,443.1Z" transform="translate(-50.1 -16.78)"/>
  <path class="cls-1" d="M263.76,443.1a212.66,212.66,0,1,0-150.37-62.29A212.67,212.67,0,0,0,263.76,443.1Z" transform="translate(-50.1 -16.78)"/>
  <path class="cls-1" d="M267.85,308.47l1.43,1,1.47,1,1.51,0.94,1.54,0.93,1.58,0.91,1.62,0.9,1.66,0.88,1.69,0.86,1.73,0.84,1.77,0.82,1.81,0.8L287.5,319l1.88,0.76" transform="translate(-50.1 -16.78)"/>
  <path class="cls-1" d="M263.76,443.1a212.66,212.66,0,1,0-150.37-62.29A212.67,212.67,0,0,0,263.76,443.1Z" transform="translate(-50.1 -16.78)"/>
  <path class="cls-1" d="M297.3,322.6l2.08,0.63,2.11,0.6,2.15,0.57,2.19,0.55,2.23,0.51,2.27,0.48,2.31,0.45,2.35,0.41,2.39,0.38,2.42,0.34,2.46,0.3,2.5,0.26,2.54,0.22,2.58,0.18" transform="translate(-50.1 -16.78)"/>
  <path class="cls-1" d="M263.76,443.1a212.66,212.66,0,1,0-150.37-62.29A212.67,212.67,0,0,0,263.76,443.1Z" transform="translate(-50.1 -16.78)"/>
  <path class="cls-1" d="M340.56,328.75l2.76-.05,2.8-.1,2.83-.15,2.87-.2,2.9-.26,2.94-.31,3-.37,3-.42,3-.48,3.07-.54,3.1-.61,3.13-.67,3.16-.73,3.19-.8" transform="translate(-50.1 -16.78)"/>
  <path class="cls-1" d="M263.76,443.1a212.66,212.66,0,1,0-150.37-62.29A212.67,212.67,0,0,0,263.76,443.1Z" transform="translate(-50.1 -16.78)"/>
  <path class="cls-1" d="M395.32,319.18l3.32-1.15,3.34-1.22,3.37-1.3,3.39-1.37,3.41-1.45,3.43-1.53,3.45-1.61,3.46-1.69,3.48-1.78,3.49-1.86,3.51-1.95,3.52-2L440,298.1l3.54-2.22,3.55-2.31,3.55-2.4-1.46-4-1.51-4-1.56-3.88-1.61-3.8-1.65-3.72-1.69-3.64-1.73-3.56-1.77-3.49-1.81-3.41L434,254.37l-1.87-3.25-1.91-3.18-1.93-3.1-2-3-2-3-2-2.88" transform="translate(-50.1 -16.78)"/>
  <path class="cls-1" d="M263.76,443.1a212.66,212.66,0,1,0-150.37-62.29A212.67,212.67,0,0,0,263.76,443.1Z" transform="translate(-50.1 -16.78)"/>
  <path class="cls-1" d="M414.1,225.19L412,222.67l-2.12-2.45-2.14-2.38-2.15-2.31-2.16-2.24-2.17-2.17L399.06,209l-2.19-2-2.19-2-2.2-1.91-2.2-1.85-2.2-1.79-2.2-1.72-2.2-1.67-2.2-1.6-2.2-1.54-2.2-1.49L374.89,190l-2.19-1.37-2.18-1.31L368.34,186l-2.17-1.21L364,183.69l-2.15-1.1-2.14-1-2.13-1-2.12-.94-2.11-.9-2.09-.85-2.08-.8-2.07-.75-2.05-.71" transform="translate(-50.1 -16.78)"/>
  <path class="cls-1" d="M263.76,443.1a212.66,212.66,0,1,0-150.37-62.29A212.67,212.67,0,0,0,263.76,443.1Z" transform="translate(-50.1 -16.78)"/>
  <path class="cls-1" d="M337,173.2l-2-.49-2-.45-1.93-.41-1.91-.37-1.9-.34-1.87-.3-1.86-.26-1.83-.23-1.81-.19-1.79-.16-1.77-.13-1.75-.09-1.73-.06" transform="translate(-50.1 -16.78)"/>
  <path class="cls-1" d="M263.76,443.1a212.66,212.66,0,1,0-150.37-62.29A212.67,212.67,0,0,0,263.76,443.1Z" transform="translate(-50.1 -16.78)"/>
  <path class="cls-1" d="M263.76,443.1a212.66,212.66,0,1,0-150.37-62.29A212.67,212.67,0,0,0,263.76,443.1Z" transform="translate(-50.1 -16.78)"/>
  <path class="cls-1" d="M263.76,443.1a212.66,212.66,0,1,0-150.37-62.29A212.67,212.67,0,0,0,263.76,443.1Z" transform="translate(-50.1 -16.78)"/>
  <path class="cls-1" d="M263.76,443.1a212.66,212.66,0,1,0-150.37-62.29A212.67,212.67,0,0,0,263.76,443.1Z" transform="translate(-50.1 -16.78)"/>
  <path class="cls-1" d="M339.24,250.66l1.36-1.07,1.36-1.1,1.36-1.14,1.36-1.18,1.35-1.22,1.35-1.26,1.35-1.3,1.34-1.34,1.34-1.39,1.33-1.43,1.32-1.47,1.31-1.51,1.3-1.56" transform="translate(-50.1 -16.78)"/>
  <path class="cls-1" d="M263.76,443.1a212.66,212.66,0,1,0-150.37-62.29A212.67,212.67,0,0,0,263.76,443.1Z" transform="translate(-50.1 -16.78)"/>
  <path class="cls-1" d="M361.77,227l1.24-1.78,1.23-1.82,1.21-1.87,1.2-1.92,1.18-2,1.16-2,1.14-2.06,1.12-2.11,1.1-2.15,1.07-2.2,1-2.25,1-2.3,1-2.35,1-2.39" transform="translate(-50.1 -16.78)"/>
  <path class="cls-1" d="M263.76,443.1a212.66,212.66,0,1,0-150.37-62.29A212.67,212.67,0,0,0,263.76,443.1Z" transform="translate(-50.1 -16.78)"/>
  <path class="cls-1" d="M381,187.77l0.8-2.64,0.77-2.69,0.73-2.74,0.69-2.79,0.65-2.84,0.61-2.89,0.57-2.94,0.52-3,0.48-3,0.43-3.08,0.38-3.13,0.33-3.18,0.28-3.23,0.23-3.28" transform="translate(-50.1 -16.78)"/>
  <path class="cls-1" d="M263.76,443.1a212.66,212.66,0,1,0-150.37-62.29A212.67,212.67,0,0,0,263.76,443.1Z" transform="translate(-50.1 -16.78)"/>
  <path class="cls-1" d="M388.81,132.74l-0.06-3.51-0.13-3.56-0.19-3.6-0.26-3.65-0.33-3.69-0.4-3.73L387,107.22l-0.54-3.82-0.62-3.86-0.69-3.9-0.77-3.94-0.85-4-0.93-4-1-4.05-1.1-4.09-1.19-4.12-4.29.15-4.23.22-4.17.29-4.11.36-4,.42-4,.49-3.92.55-3.86.61-3.8.67-3.74.72-3.67.78-3.61.83-3.55.88-3.49.93-3.42,1-3.36,1" transform="translate(-50.1 -16.78)"/>
  <path class="cls-1" d="M263.76,443.1a212.66,212.66,0,1,0-150.37-62.29A212.67,212.67,0,0,0,263.76,443.1Z" transform="translate(-50.1 -16.78)"/>
  <path class="cls-1" d="M305.22,85.83l-3,1.23-3,1.26-2.92,1.3L293.4,91l-2.8,1.36-2.74,1.39-2.68,1.42-2.62,1.45L280,98.05l-2.5,1.5-2.44,1.52-2.38,1.54-2.32,1.56-2.26,1.58-2.2,1.6L263.76,109l-2.09,1.63-2,1.65-2,1.66-1.92,1.67-1.87,1.68L252,118.95l-1.76,1.7-1.71,1.71-1.66,1.71-1.6,1.72-1.56,1.72-1.5,1.73L240.79,131l-1.4,1.73L238,134.43l-1.31,1.73" transform="translate(-50.1 -16.78)"/>
  <path class="cls-1" d="M263.76,443.1a212.66,212.66,0,1,0-150.37-62.29A212.67,212.67,0,0,0,263.76,443.1Z" transform="translate(-50.1 -16.78)"/>
  <path class="cls-1" d="M232,143.07l-1.08,1.72-1,1.72-1,1.71-0.95,1.7-0.91,1.7-0.86,1.69L225.32,155l-0.78,1.67-0.74,1.67L223.09,160l-0.67,1.65-0.63,1.64-0.59,1.62" transform="translate(-50.1 -16.78)"/>
  <path class="cls-1" d="M263.76,443.1a212.66,212.66,0,1,0-150.37-62.29A212.67,212.67,0,0,0,263.76,443.1Z" transform="translate(-50.1 -16.78)"/>
  <path class="cls-1" d="M263.76,443.1a212.66,212.66,0,1,0-150.37-62.29A212.67,212.67,0,0,0,263.76,443.1Z" transform="translate(-50.1 -16.78)"/>
  <path class="cls-1" d="M263.76,443.1a212.66,212.66,0,1,0-150.37-62.29A212.67,212.67,0,0,0,263.76,443.1Z" transform="translate(-50.1 -16.78)"/>
  <path class="cls-1" d="M263.76,443.1a212.66,212.66,0,1,0-150.37-62.29A212.67,212.67,0,0,0,263.76,443.1h0" transform="translate(-50.1 -16.78)"/>
  <path class="cls-2" d="M325.86,226.1l0.75-1.16,0.74-1.18,0.73-1.21,0.72-1.24,0.7-1.27,0.69-1.3,0.68-1.33,0.66-1.36,0.65-1.39,0.63-1.42,0.61-1.45,0.6-1.48,0.58-1.51,0.56-1.54,0.54-1.57,0.52-1.6,0.5-1.63,0.48-1.66,0.45-1.69,0.43-1.72,0.4-1.75,0.38-1.79L339.2,192l0.32-1.85,0.3-1.88,0.27-1.91,0.24-1.94,0.2-2,0.17-2,0.14-2,0.11-2.05,0.07-2.08,0-2.11v-2.14l0-2.17-0.08-2.2-0.12-2.23-0.16-2.25-0.2-2.28-0.24-2.31-0.29-2.33-0.33-2.36-0.38-2.39-0.43-2.41-0.48-2.43-0.52-2.46-0.58-2.48-0.63-2.51-3-10.24-0.9-2.61-1-2.63-1-2.65-1.08-2.66-1.14-2.68-1.2-2.7L326,108.38l-1.33-2.72-1.4-2.74-1.46-2.75-1.53-2.76-1.6-2.77L317,91.86l-1.74-2.78-1.82-2.79-1.89-2.8-2-2.8-2-2.8-2.12-2.8-2.19-2.8-2.27-2.8-2.35-2.8-2.43-2.79-2.52-2.79L291,58.32l-2.68-2.77-2.77-2.76L282.72,50l-2.94-2.74-3-2.72-3.11-2.7-3.2-2.68-3.29-2.66-3.38-2.64-3.38,2.64-3.29,2.66-3.2,2.68-3.11,2.7-3,2.72L244.8,50l-2.85,2.75-2.77,2.76-2.68,2.77-2.6,2.78-2.52,2.79L229,66.69l-2.35,2.8-2.27,2.8-2.19,2.8L220,77.89l-2,2.8-2,2.8-1.89,2.8-1.82,2.79-1.74,2.78-1.67,2.78-1.6,2.77-1.53,2.76-1.46,2.75-1.4,2.74-1.33,2.72-1.27,2.71-1.2,2.7L198,116.46l-1.08,2.66-1,2.65-1,2.63L194,127l-0.84,2.59-0.79,2.57-0.73,2.55-0.68,2.53-0.63,2.51-0.58,2.48-0.53,2.46-0.48,2.43-0.43,2.41-0.38,2.39-0.33,2.36-0.29,2.33-0.24,2.31-0.2,2.28-0.16,2.25-0.12,2.23-0.08,2.2,0,2.17v2.14l0,2.11,0.07,2.08,0.11,2.05,0.14,2,0.17,2,0.2,2,0.24,1.94,0.27,1.91,0.3,1.88,0.32,1.85,0.35,1.81L189,195.6l0.4,1.75,0.43,1.72,0.45,1.69,0.48,1.66,3.29,9.34,0.61,1.45,0.63,1.42L196,216l0.66,1.36,0.68,1.33L198,220l0.7,1.27,0.72,1.24,0.73,1.21,0.74,1.18,0.75,1.16,0.76,1.13,0.77,1.1,0.78,1.07,0.79,1,0.79,1,0.8,1,0.81,1,0.81,0.94,0.82,0.91,0.82,0.88,0.83,0.86,0.83,0.83,0.83,0.8,0.83,0.78,0.84,0.75,0.84,0.73,0.84,0.71,8.38,5.8,0.83,0.46,0.83,0.44,0.82,0.42,0.82,0.4,0.81,0.38,0.81,0.36,0.8,0.34,0.8,0.32,0.79,0.31,0.79,0.29,0.78,0.27,0.78,0.25,0.77,0.24L235,252.1l0.76,0.2,0.75,0.19,0.75,0.17,0.74,0.16,0.73,0.14,0.72,0.13,0.72,0.11,0.71,0.1,0.7,0.09,0.69,0.07,0.69,0.06,0.68,0,0.67,0,0.66,0h1.93l0.63,0,0.62,0,0.61,0,0.6-.05,0.59-.06,0.58-.07,0.57-.08,0.56-.09,0.55-.1,0.54-.11,0.54-.11,0.53-.12,0.52-.13,0.51-.14,0.5-.14,0.49-.15,0.48-.16,0.47-.16,0.46-.17,0.46-.17,0.44-.18,0.44-.18L259,251l0.42-.19,0.41-.2,0.4-.2,0.39-.21L261,250l0.37-.22,0.36-.22,0.36-.22,0.35-.22,0.34-.23,0.33-.23,0.32-.23,0.31-.24,0.31,0.24,0.32,0.23,0.33,0.23,0.34,0.23,0.35,0.22,0.36,0.22,0.36,0.22L266.5,250l0.38,0.21,0.39,0.21,0.4,0.2,0.41,0.2L268.5,251l0.43,0.19,0.44,0.18,0.44,0.18,0.46,0.17,0.46,0.17L271.2,252l0.48,0.16,0.49,0.15,0.5,0.14,0.51,0.14,0.52,0.13,0.53,0.12,0.54,0.11,0.54,0.11,10.63,0.3,0.7-.09,0.71-.1,0.72-.11,0.72-.13,0.73-.14,0.74-.16,0.75-.17,0.75-.19,0.76-.2,0.77-.22,0.77-.24,0.78-.25,0.78-.27,0.79-.29,0.79-.31,0.8-.32,0.8-.34,0.81-.36,0.81-.38,0.82-.4,0.82-.42,0.83-.44,0.83-.46,0.83-.48,0.83-.5,0.84-.52,0.84-.54,0.84-.57,0.84-.59,0.84-.61,0.84-.63,0.84-.66,0.84-.68,0.84-.71,0.84-.73,0.84-.75,0.83-.78,0.83-.8,0.83-.83,0.83-.86,0.82-.88,0.82-.91Z" transform="translate(-50.1 -16.78)"/>
  <path class="cls-2" d="M186.95,132.13l-2.76.05-2.8.1-2.83.15-2.87.2-2.9.26-2.94.31-3,.37-3,.42-3,.48-3.07.54-3.1.61-3.13.67-3.16.73-3.19.8-3.22.86-3.24.93-3.27,1-3.29,1.07-3.32,1.15-3.34,1.22-3.37,1.3-3.39,1.37-3.41,1.45-3.43,1.53-3.45,1.61L105,153l-3.48,1.78L98,156.66l-3.51,1.95-3.52,2-3.53,2.13L83.95,165,80.4,167.3l-3.56,2.4,1.46,4,1.51,4,1.56,3.88,1.61,3.8,1.65,3.72,1.69,3.64,1.73,3.56,1.77,3.49,1.81,3.41,1.84,3.33,1.87,3.25,1.91,3.18L99.2,216l2,3,2,3,2,2.88,2,2.81,2.06,2.73,2.07,2.66,2.09,2.59,2.11,2.52,2.12,2.45,2.14,2.38,2.15,2.31,2.16,2.24,2.17,2.17,2.18,2.11,2.19,2,2.19,2,2.2,1.91,2.2,1.85,2.2,1.79,2.2,1.72,2.2,1.67,2.2,1.6,2.2,1.54,2.2,1.49,2.19,1.43,2.19,1.37,2.18,1.31,2.18,1.26,2.17,1.21,2.16,1.15,2.15,1.1,2.14,1,2.13,1,2.12,0.94,2.11,0.9,2.09,0.85,2.08,0.8,2.07,0.75,2.05,0.71,2,0.66,2,0.62,2,0.58,2,0.53,2,0.49,2,0.45,1.93,0.41,1.91,0.37,1.9,0.34L202,290l1.86,0.26,1.83,0.23,1.81,0.19,1.79,0.16L211.1,291l1.75,0.09,1.73,0.06,9.9-.24,1.57-.14,1.55-.16,1.52-.19,1.5-.21,1.48-.23,1.45-.25,1.43-.28,1.4-.3,1.38-.32,1.35-.34,1.33-.35,1.31-.37,1.28-.39,1.26-.41,1.24-.42,1.21-.44,1.19-.46,1.16-.47,1.14-.48,1.12-.5,1.09-.51,1.07-.52,1-.53,1-.54,1-.55,1-.56,1-.57,0.93-.58,8.11-6.18,0.69-.64,0.67-.65,0.65-.65,0.63-.65,0.61-.66,0.59-.66,0.58-.66,0.55-.66,0.54-.66,0.52-.66,0.5-.66,0.48-.66,0.46-.66,0.45-.66,0.43-.66,0.41-.66,0.39-.66,0.38-.65,0.36-.65,0.35-.65,0.33-.65,0.31-.64,0.3-.64L279,258l0.27-.63,0.25-.63,0.24-.63,0.23-.62,0.21-.62,0.2-.61,0.19-.61,0.17-.6,0.16-.6,0.15-.59,0.14-.59,0.12-.58,0.11-.57,0.1-.57,0.09-.56,0.08-.56,0.07-.55,0.06-.54,0-.54,0-.53,0-.52,0-.52v-1.52l0-.49,0-.49,0-.48,0-.47,0-.46-0.06-.46-0.06-.45-0.07-.44-0.08-.44-0.08-.43-0.09-.42-0.1-.41-0.1-.41-0.11-.4L281,237l-0.12-.39-0.12-.38-0.13-.37,0.32-.22,0.32-.24,0.32-.24,0.32-.25,0.32-.26,0.32-.27,0.32-.28,0.32-.29,0.32-.3,0.32-.31,0.32-.32,0.31-.33,0.31-.34,0.31-.35,0.31-.36,0.31-.37,0.31-.38,0.3-.39,0.3-.4,0.3-.41,0.29-.42,0.29-.43,0.29-.44,0.28-.45,0.28-.46,0.27-.47,0.27-.49,3.57-10,0.13-.69,0.12-.71,0.11-.72,0.1-.73,0.09-.74,0.08-.75,0.06-.76,0.05-.77,0-.79,0-.8v-1.62l0-.83,0-.84,0-.85-0.06-.86-0.08-.87-0.09-.88-0.11-.89-0.13-.9-0.14-.91-0.16-.92-0.18-.93-0.2-.94-0.22-.95-0.24-1-0.26-1-0.28-1-0.3-1-0.32-1-0.35-1-0.37-1-0.39-1-0.41-1-0.44-1-0.46-1-0.48-1-0.51-1-0.53-1-0.56-1.05-0.58-1.05-0.61-1.06-5.9-8.54L278,169l-0.9-1.07-0.93-1.07-1-1.07-1-1.06-1-1.06-1.06-1.05L271,161.53l-1.12-1-1.16-1-1.19-1-1.22-1-1.26-1-1.29-1-1.33-1-1.36-1-1.4-1-1.43-1-1.47-1-1.51-.94-1.54-.93-1.58-.91-1.62-.89-1.66-.88-1.69-.86-1.73-.84-1.77-.82-1.81-.8-1.84-.78-1.88-.76-1.92-.74-2-.71-2-.69-2-.66-2.08-.63L226,137l-2.15-.58-2.19-.54-2.23-.51-2.27-.48-2.31-.45-2.35-.41-2.39-.38-2.42-.34-2.46-.3-2.5-.26-2.54-.22-2.58-.18Z" transform="translate(-50.1 -16.78)"/>
  <path class="cls-2" d="M309.14,286.49L309.5,285l0.32-1.52,0.3-1.51,0.26-1.49,0.24-1.47,0.21-1.46,0.18-1.44,0.15-1.43,0.13-1.41,0.1-1.39,0.07-1.38,0-1.36,0-1.34v-1.32l0-1.31,0-1.29-0.07-1.27-0.09-1.25-0.11-1.23-0.13-1.22-0.15-1.2-0.16-1.18-0.18-1.16-0.2-1.14-0.22-1.12-0.23-1.1-0.25-1.09-0.27-1.07c-0.28-2.91-3.37-9.62-3.37-9.62l-0.4-.86-0.41-.84-0.42-.82-0.43-.8-0.43-.79-0.44-.77-0.45-.75-0.46-.73-0.46-.71-0.47-.7-0.47-.68-0.48-.66-0.49-.64-0.49-.63-0.49-.61-0.5-.6-0.5-.58-0.5-.56-0.51-.55-0.51-.53-0.51-.51-0.52-.5-0.52-.48-0.52-.47-0.52-.45-0.52-.44-0.52-.42-0.52-.41-0.52-.39-0.52-.38-0.52-.36-0.52-.35-0.52-.34-0.52-.32-0.52-.31-0.51-.3-0.51-.28-0.51-.27-0.51-.26-0.51-.25-0.5-.24-0.5-.22-0.5-.21-0.49-.2-0.49-.19-0.49-.18-0.48-.17-0.48-.16-0.48-.15-0.47-.14-0.47-.13-0.47-.12-0.46-.11-0.46-.1-0.45-.09-0.45-.08-0.44-.07-0.44-.06-0.43-.05-0.43,0-0.42,0-0.42,0-0.41,0-0.41,0h-1.19l-0.11-.38-0.12-.38L273.8,215l-0.14-.38-0.15-.39-0.16-.39-0.17-.39L273,213l-0.19-.4-0.19-.4-0.2-.4-0.21-.4L272,211l-0.23-.4-0.24-.4-0.25-.41-0.27-.41-0.27-.41-0.29-.41-0.3-.41-0.31-.41-0.32-.41-0.33-.41-0.34-.41-0.36-.41-0.37-.41-0.38-.41a20.17,20.17,0,0,0-8.42-6.49l-0.62-.34-0.63-.34-0.65-.33-0.66-.32-0.68-.31-0.69-.31-0.7-.3L254,196.3l-0.73-.28-0.75-.27-0.76-.26-0.78-.25-0.79-.24-0.81-.23-0.82-.22-0.84-.21-0.85-.2L246,194l-0.88-.17-0.9-.16-0.91-.14-0.93-.13-0.94-.11-1-.1-1-.08-1-.07-1-.05-1,0-1,0h-1l-1.05,0-1.07,0-1.08.06-1.1.08-1.11.1-1.12.12-1.13.14-1.15.16-1.16.19-1.17.21-1.18.23-1.2.25-9.94,3-1.29.49-1.29.52-1.3.55-1.31.58-1.32.61-1.32.65-1.33.68-1.34.71-1.34.74-1.35.78-1.35.81-1.35.85-1.36.88-1.36.92-1.36,1-1.36,1-1.36,1-1.36,1.07-1.36,1.1-1.36,1.14-1.36,1.18-1.35,1.22-1.35,1.26-1.35,1.3-1.34,1.34-1.34,1.39-1.33,1.43-1.32,1.47-1.31,1.51-1.3,1.56-1.29,1.6-1.28,1.64L167,232.13l-1.26,1.73-1.24,1.78-1.23,1.82-1.21,1.87-1.2,1.92-1.18,2-1.16,2-1.14,2.06-1.12,2.11-1.09,2.15-1.07,2.2-1,2.25-1,2.3-1,2.35-1,2.39-3.55,10.07-0.8,2.64L145,278.44l-0.73,2.74L143.53,284l-0.65,2.84-0.61,2.89-0.57,2.94-0.52,3-0.48,3-0.43,3.08-0.38,3.13-0.33,3.18-0.28,3.23L139,314.56l-0.17,3.32-0.11,3.37-0.06,3.42v3.46l0.06,3.51,0.13,3.56,0.19,3.6,0.26,3.65,0.33,3.69,0.4,3.73,0.47,3.78,0.54,3.82,0.61,3.86,0.69,3.9,0.77,3.94,0.85,4,0.93,4,1,4.05,1.1,4.09,1.19,4.12,4.29-.14,4.23-.22,4.17-.29,4.11-.36,4-.42,4-.49L177,387l3.86-.61,3.8-.67,3.74-.72,3.67-.78,3.61-.83,3.55-.88,3.49-.93,3.42-1,3.36-1,3.3-1.07,3.23-1.11,3.17-1.15,3.11-1.19,3-1.23,3-1.26,2.92-1.3,2.86-1.33,2.8-1.36,2.74-1.39,2.68-1.42,2.62-1.45,2.56-1.47,2.5-1.5,2.44-1.52,2.38-1.54,2.32-1.56,2.26-1.58,2.2-1.6,2.15-1.62,2.09-1.63,2-1.65,2-1.66,1.92-1.67,1.87-1.68,1.82-1.69,1.76-1.7,1.71-1.71,1.66-1.71,1.6-1.72,1.56-1.72,1.5-1.73,1.45-1.73,1.4-1.73,1.36-1.73,1.31-1.73,1.26-1.73,1.21-1.73,1.17-1.73,1.12-1.72,1.08-1.72,1-1.72,1-1.71,0.95-1.71,0.91-1.7,0.86-1.69,0.82-1.68L303,304.2l0.74-1.67,0.71-1.66,0.67-1.65,0.63-1.64,0.59-1.62Z" transform="translate(-50.1 -16.78)"/>
  <path class="cls-2" d="M331.09,204.59l-1.35-.81-1.35-.78-1.34-.74-1.34-.71-1.33-.68-1.32-.65-1.32-.61-1.31-.58-1.3-.55-1.29-.52-1.29-.49-1.28-.47-1.27-.44-1.26-.41-1.25-.38-1.24-.36-1.23-.33-1.22-.3-1.21-.28-1.2-.25-1.18-.23-1.17-.21-1.16-.19-1.15-.16-1.13-.14-1.12-.12-1.11-.1-1.1-.08-10.19.24-0.94.11-0.93.13-0.91.14-0.9.16-0.88.17-0.87.18-0.85.2-0.84.21-0.82.22-0.81.23-0.79.24-0.78.25-0.76.26-0.75.27-0.73.28-0.72.29-0.7.3-0.69.31-0.68.31-0.66.32-0.65.33-0.63.34-0.62.34-0.6.35-0.59.35-0.58.36-0.56.36-0.55.37-0.53.37-0.52.38-0.51.38-0.49.38-0.48.39-0.47.39-0.45.39-0.44.4-0.43.4-0.42.4-0.4.4-0.39.4-0.38.41-0.37.41-0.36.41-0.34.41-0.33.41-0.32.41-0.31.41-0.3.41-0.29.41-0.27.41-0.27.41-0.25.41-0.24.4-0.23.4-0.22.4-0.21.4-0.2.4-0.19.4-0.19.4-0.18.39-0.17.39-0.16.39-0.15.39-0.14.38-0.13.38-0.12.38-0.11.38h-1.19l-0.41,0-0.41,0-0.42,0-0.42,0-0.43,0-0.43.05-0.44.06-0.44.07-0.45.08-0.45.09-0.46.1-0.46.11-0.47.12-0.47.13-0.47.14-0.48.15-0.48.16-0.48.17-0.49.18-0.49.19-0.49.2-0.5.21-0.5.22-0.5.24-8.77,6-0.52.48-0.52.5-0.51.51-0.51.53-0.51.55-0.5.56-0.5.58-0.5.6-0.49.61-0.49.63-0.49.64-0.48.66-0.47.68-0.47.7-0.46.71-0.46.73-0.45.75-0.44.77-0.43.79-0.43.8-0.42.82-0.41.84-0.4.86-0.39.88-0.38.9-0.37.91-0.36.93-0.35,1-0.33,1-0.32,1-0.31,1-0.29,1-0.28,1-0.27,1.07L217.58,252l-0.23,1.1-0.22,1.12-0.2,1.14-0.18,1.16-0.16,1.18-0.15,1.2-0.13,1.22-0.25,10.37,0.07,1.38,0.1,1.39,0.13,1.41,0.15,1.43,0.18,1.44L216.9,279l0.24,1.47,0.26,1.49,0.3,1.51L218,285l0.36,1.53,0.39,1.55,0.42,1.56,0.45,1.57,0.49,1.59,0.52,1.6L221.2,296l0.59,1.62,0.63,1.64,0.67,1.65,0.71,1.66,0.74,1.67,0.78,1.68,0.82,1.68,0.86,1.69,0.91,1.7,0.95,1.71,1,1.71,1,1.72L232,317.8l1.12,1.72,1.17,1.73,1.21,1.73,1.26,1.73,1.31,1.73,1.36,1.73,1.4,1.73,1.45,1.73,1.5,1.73,1.56,1.72,1.6,1.72,1.66,1.71,1.71,1.71,1.76,1.7,1.82,1.69,1.87,1.68,1.92,1.67,2,1.66,8.48,6.49,2.26,1.58,2.32,1.56,2.38,1.54,2.44,1.52,2.5,1.5,2.56,1.47,2.62,1.45,2.68,1.42,2.74,1.39,2.8,1.36,2.86,1.33,2.92,1.3,3,1.26,3,1.23,3.11,1.19,3.17,1.15,3.23,1.11,3.3,1.07,3.36,1,3.42,1,3.49,0.93,3.55,0.88,3.61,0.83,3.67,0.78,3.74,0.72,3.8,0.67,3.86,0.61,3.92,0.55,4,0.49,4,0.42,4.11,0.36,4.17,0.29,4.23,0.22,4.29,0.14,1.19-4.12,1.1-4.09,1-4.05,0.93-4,0.85-4,0.77-3.94,0.69-3.9,0.62-3.86,0.54-3.82,0.47-3.78,0.4-3.73,0.33-3.69,0.26-3.65,0.19-3.6,0.13-3.56,0.06-3.51v-3.46l-0.06-3.42-0.11-3.37-0.17-3.32-0.23-3.28L388,308.05l-0.33-3.18-0.38-3.13-0.43-3.08-0.48-3-0.52-3-0.57-2.94-0.61-2.89L384,284l-0.69-2.79-0.73-2.74-0.77-2.69-0.8-2.64-0.84-2.59L379.28,268l-0.9-2.49L377.44,263l-1-2.39-1-2.35-1-2.3-1-2.25-1.07-2.2-1.1-2.15-1.12-2.11L369,245.23l-1.16-2-1.18-2-1.2-1.92-1.21-1.87L363,235.64l-1.24-1.78-1.26-1.73-1.27-1.69L358,228.79l-1.29-1.6-1.3-1.56-1.31-1.51-1.32-1.47-1.33-1.43-1.34-1.39-1.34-1.34-1.35-1.3L346,215.93l-1.35-1.22-1.36-1.18L342,212.38l-1.36-1.1-1.36-1.07Z" transform="translate(-50.1 -16.78)"/>
  <path class="cls-2" d="M260,158.42l-1.19,1-1.16,1-1.12,1-1.09,1.05-1.06,1.05-1,1.06-1,1.06-1,1.07-0.93,1.07-0.9,1.07L248.7,170l-0.84,1.07L247,172.17l-0.78,1.07-0.75,1.07-0.72,1.07-0.69,1.07-0.67,1.06-0.64,1.06-0.61,1.06-0.58,1.05L241,181.73l-0.53,1-0.51,1-0.48,1-0.46,1-0.44,1-0.41,1-2.92,9.77-0.18.93-0.16.92-0.14.91-0.13.9-0.11.89-0.09.88-0.08.87-0.06.86,0,0.85,0,0.84,0,0.83V209l0,0.8,0,0.79,0.05,0.77,0.06,0.76,0.08,0.75,0.09,0.74,0.1,0.73,0.11,0.72,0.12,0.71,0.13,0.69,0.14,0.68,0.15,0.67,0.16,0.66,0.17,0.65,0.18,0.64,0.19,0.62,0.2,0.61,0.21,0.6,0.21,0.59,0.22,0.58,0.23,0.57,0.23,0.55,0.24,0.54,0.25,0.53,0.25,0.52,0.26,0.51,0.26,0.5,0.27,0.49,0.27,0.47,0.28,0.46,0.28,0.45,0.29,0.44,0.29,0.43,0.29,0.42,0.3,0.41,0.3,0.4,0.3,0.39,0.31,0.38,0.31,0.37,0.31,0.36,0.31,0.35,0.31,0.34,0.31,0.33,0.32,0.32,0.32,0.31,0.32,0.3,0.32,0.29,0.32,0.28,0.32,0.27,0.32,0.26,0.32,0.25,0.32,0.24,0.32,0.24,0.32,0.22-0.13.37-0.12.38-0.12.39-0.11.39-0.11.4-0.1.41-0.1.41-0.09.42-0.08.43-0.08.44-0.07.44-0.06.45-0.06.46,0,0.46,0,0.47,0,0.48,0,0.49,0,0.49v1.52l0,0.52,0,0.52,0,0.53,0,0.54,0.06,0.54,0.07,0.55,3,10.2,0.3,0.64,0.31,0.64,0.33,0.65,0.35,0.65,0.36,0.65,0.38,0.65,0.39,0.66,0.41,0.66,0.43,0.66,0.45,0.66,0.46,0.66,0.48,0.66,0.5,0.66,0.52,0.66,0.54,0.66,0.55,0.66,0.58,0.66,0.59,0.66,0.61,0.66,0.63,0.65,0.65,0.65,0.67,0.65,0.69,0.64,0.71,0.64,0.74,0.64,0.76,0.63,0.78,0.63,0.8,0.62,0.82,0.62,0.84,0.61,0.86,0.6,0.89,0.6,0.91,0.59,0.93,0.58,1,0.57,1,0.56,1,0.55,1,0.54,1,0.53,1.07,0.52,1.09,0.51,1.12,0.5s2.89,1.86,9.79,3.44l1.33,0.35,1.35,0.34,1.38,0.32,1.4,0.3,1.43,0.28,1.45,0.25,1.48,0.23,1.5,0.21,1.52,0.19,1.55,0.16,1.57,0.14,1.59,0.11,1.62,0.08,1.64,0.06,1.66,0h1.68l1.71,0,1.73-.06,1.75-.09,1.77-.13,1.79-.16,1.81-.19,1.83-.23,1.86-.26,1.87-.3,1.9-.34,1.91-.37,1.93-.41,2-.45,2-.49,2-.53,2-.58,2-.62,2-.66,2.05-.71,2.07-.75,2.08-.8,2.09-.85,2.11-.9,2.12-.94,2.13-1,2.14-1,2.15-1.1,2.16-1.15,2.17-1.21,2.18-1.26,2.18-1.31,2.19-1.37,8.79-6.06,2.2-1.67,2.2-1.72,2.2-1.79,2.2-1.85,2.2-1.91,2.19-2,2.19-2,2.18-2.11,2.17-2.17,2.16-2.24,2.15-2.31,2.14-2.38,2.12-2.45,2.11-2.52,2.09-2.59,2.08-2.66,2.06-2.73,2-2.81,2-2.88,2-3,2-3,1.93-3.1,1.91-3.18,1.87-3.25,1.84-3.33,1.81-3.41,1.77-3.49,1.73-3.56,1.69-3.64,1.65-3.72,1.61-3.8,1.56-3.88,1.51-4,1.46-4-3.55-2.4L443.57,165,440,162.77l-3.53-2.13-3.52-2-3.51-1.95L426,154.8,422.49,153,419,151.33l-3.45-1.61-3.43-1.53-3.41-1.45-3.39-1.37-3.37-1.3-3.34-1.22-3.32-1.15L392,140.62l-3.27-1-3.24-.93-3.21-.86-3.19-.8-3.16-.73-3.13-.67-3.1-.61-3.07-.54-3-.48-3-.42-3-.37-2.94-.31-2.9-.26-2.87-.2-2.83-.15-2.8-.1-2.76-.05h-2.72l-2.69,0-2.65.09-2.61.13-2.58.18-2.54.22-2.5.26-2.46.3-2.42.34-2.39.38-2.35.41-2.31.45-2.27.48-2.23.51-2.19.54-2.15.58-2.11.6-2.08.63-2,.66-2,.69-2,.71-1.92.74-1.88.76-1.84.78-1.81.8-1.77.82-1.73.84-1.69.86-1.66.88-1.62.89-1.58.91-1.54.93-1.51.94-1.47,1-1.43,1Z" transform="translate(-50.1 -16.78)"/>
  <path class="cls-2" d="M306.24,169.76l-1.62.08L303,170l-1.57.14-1.55.16-1.52.19-1.5.21-1.48.23-1.45.25-1.43.28-1.4.3-1.38.32-1.35.34-1.33.35-1.31.37-1.28.39-1.26.41-1.24.42-1.21.44-1.19.46-1.16.47-1.14.48-1.12.5-1.09.51-1.07.52-1,.53-1,.54-1,.55-1,.56-1,.57-0.93.58-0.91.59-0.89.6-0.86.6-0.84.61-0.82.62-0.82-.62-0.84-.61-0.86-.6-0.89-.6-0.91-.59-0.93-.58-1-.57-1-.56-1-.55-1-.54-1-.53-1.07-.52-1.09-.51-1.12-.5-9.79-3.44-1.33-.35-1.35-.34-1.38-.32-1.4-.3-1.43-.28-1.45-.25-1.48-.23-1.5-.21-1.52-.19-1.55-.16-1.57-.14-1.59-.11-1.62-.08-1.64-.06-0.45,1.57-0.42,1.56-0.39,1.55L218,175.92l-0.32,1.52L217.4,179l-0.26,1.49-0.24,1.47-0.21,1.46-0.18,1.44-0.15,1.43-0.13,1.41-0.1,1.39-0.07,1.38,0,1.36,0,1.34v1.32l0,1.31,0,1.29,0.07,1.27,0.09,1.25,0.11,1.23,0.13,1.22,0.15,1.2,0.16,1.18,0.18,1.16,0.2,1.14,0.22,1.12,0.23,1.1,0.25,1.09,0.27,1.07,0.28,1,0.29,1,0.31,1,0.32,1,0.33,1-0.84.59-0.84.61-0.84.63-0.84.66-0.84.68-0.84.71-0.84.73-0.84.75-0.83.78-0.83.8-0.83.83-0.83.86-0.82.88-0.82.91-6.3,8.25-0.75,1.16-0.74,1.18-0.73,1.21-0.72,1.24-0.7,1.27-0.69,1.3-0.68,1.33L196,244.84l-0.65,1.39-0.63,1.42-0.61,1.45-0.6,1.48-0.58,1.51-0.56,1.54,1.36,0.92,1.36,0.88,1.35,0.85,1.35,0.81,1.35,0.78,1.34,0.74,1.34,0.71,1.33,0.68,1.32,0.65,1.32,0.61,1.31,0.58,1.3,0.55,1.29,0.52,1.29,0.49,1.28,0.47,1.27,0.44,1.26,0.41,1.25,0.38,1.24,0.36,1.23,0.33,1.22,0.3,1.21,0.28,1.2,0.25,1.18,0.23,1.17,0.21,1.16,0.19,1.15,0.16,1.13,0.14L229,267.7l1.11,0.1,1.1,0.08,1.08,0.06,1.07,0,1.05,0h1l1,0,0.3,1,0.32,1,0.35,1,0.37,1,0.39,1,0.41,1,0.44,1,0.46,1,0.48,1,0.51,1,0.53,1,0.56,1.05,0.58,1.05,0.61,1.06,5.9,8.54,0.87,1.07,0.9,1.07,0.93,1.07,1,1.07,1,1.06,1,1.06,1.06,1.05,1.09,1.05,1.12,1,1.16,1,1.19,1,1.22,1,1.26,1,1.29,1,1.29-1,1.26-1,1.22-1,1.19-1,1.16-1,1.12-1,1.09-1.05,1.06-1.05,1-1.06,1-1.06,1-1.07,0.93-1.07,0.9-1.07,0.87-1.07,0.84-1.07,0.81-1.07,0.78-1.07,0.75-1.07,0.72-1.07,0.69-1.07,0.67-1.06,0.64-1.06,0.61-1.06,0.58-1.05,0.56-1.05,0.53-1,0.51-1,0.48-1,0.46-1,0.44-1,0.41-1,0.39-1,0.37-1,0.35-1,0.32-1,0.3-1,1,0h1l1.05,0,1.07,0,1.08-.06,1.1-.08,1.11-.1,1.12-.12,1.13-.14,1.15-.16,1.16-.19,1.17-.21,1.18-.23,1.2-.25,9.94-3,1.29-.49,1.29-.52,1.3-.55,1.31-.58,1.32-.61,1.32-.65,1.33-.68,1.34-.71,1.34-.74,1.35-.78,1.35-.81,1.35-.85,1.36-.88,1.36-.92-0.56-1.54L334,250.58l-0.6-1.48-0.61-1.45-0.63-1.42-0.65-1.39-0.66-1.36-0.68-1.33-0.69-1.3-0.7-1.27-0.72-1.24-0.73-1.21-0.74-1.18-0.75-1.16-0.76-1.13-0.77-1.1-0.78-1.07-0.79-1-0.79-1-0.8-1-0.81-1-0.81-.94-0.82-.91-0.82-.88-0.83-.86-0.83-.83-0.83-.8-0.83-.78-0.84-.75-0.84-.73-0.84-.71-0.84-.68-0.84-.66-0.84-.63-0.84-.61-0.84-.59,0.33-1,0.32-1,0.31-1,0.29-1,0.28-1,0.27-1.07,0.25-1.09,0.23-1.1,0.22-1.12,0.2-1.14,0.18-1.16,0.16-1.18,0.15-1.2,0.13-1.22,0.25-10.37L311.38,189l-0.1-1.39-0.13-1.41L311,184.82l-0.18-1.44-0.21-1.46-0.24-1.47L310.12,179l-0.3-1.51-0.32-1.52-0.36-1.53-0.39-1.55-0.42-1.56-0.45-1.57Z" transform="translate(-50.1 -16.78)"/>
</svg>
